<svg width="104" height="26" viewBox="0 0 104 26" fill="none" xmlns="http://www.w3.org/2000/svg">
<path d="M26.2667 8.42404C26.2667 9.9386 25.9004 11.0931 25.1679 11.8876C24.4353 12.682 23.4611 13.0786 22.2453 13.0773C21.067 13.0773 20.1381 12.712 19.4585 11.9815C18.7789 11.251 18.4397 10.2073 18.441 8.85062V0.522491H15.3847V9.18132C15.3847 11.2555 15.9015 12.8523 16.9351 13.9716C17.9688 15.0908 19.346 15.6518 21.067 15.6544C22.2123 15.6795 23.3397 15.3645 24.3093 14.7484C24.9641 14.3272 25.5048 13.7482 25.883 13.0636C25.903 13.0204 25.9372 12.9855 25.9799 12.965C26.0225 12.9445 26.0709 12.9396 26.1167 12.9512C26.1626 12.9627 26.203 12.99 26.2311 13.0284C26.2591 13.0668 26.2731 13.1138 26.2706 13.1614V15.4333H29.3521V0.522491H26.2706L26.2667 8.42404Z" fill="#000000"/>
<path d="M40.453 0.277892C39.3138 0.255809 38.1939 0.576653 37.2359 1.19954C36.5694 1.63614 36.0201 2.2324 35.6371 2.93522C35.6171 2.97845 35.5828 3.01331 35.5402 3.03383C35.4975 3.05434 35.4491 3.05923 35.4033 3.04766C35.3575 3.0361 35.317 3.00879 35.289 2.97042C35.2609 2.93205 35.2469 2.88502 35.2495 2.83738V0.522491H32.1971V15.4333H35.2533V7.50435C35.2533 5.98848 35.6196 4.83854 36.3522 4.05451C37.0848 3.27049 38.0583 2.87913 39.2728 2.88043C40.4524 2.88043 41.3814 3.2457 42.0597 3.97624C42.738 4.70678 43.0778 5.73931 43.0791 7.07385V15.4333H46.1256V6.74707C46.1256 4.67156 45.6088 3.07481 44.5752 1.95682C43.5416 0.83884 42.1675 0.279196 40.453 0.277892Z" fill="#000000"/>
<path d="M94.4735 8.75474L91.1769 0.522491H87.7466L92.8397 12.3533" fill="#000000"/>
<path d="M99.7003 0.522491H103.103L94.1789 22.5228H90.7757L99.7003 0.522491Z" fill="#000000"/>
<path d="M9.5978 6.77446H4.39228C4.14322 6.77477 3.89661 6.72486 3.66692 6.62764C3.43723 6.53042 3.22908 6.38786 3.0547 6.20832C2.88031 6.02878 2.7432 5.81588 2.6514 5.58212C2.55961 5.34835 2.51498 5.09843 2.52015 4.84701C2.53953 3.82752 3.42327 2.99784 4.49305 2.99784H12.8265V0.45009H4.49305C3.33716 0.448338 2.22435 0.892876 1.38253 1.69266C0.956508 2.09012 0.614487 2.57046 0.377024 3.1048C0.139561 3.63914 0.011561 4.21644 0.000718644 4.80201C-0.00983515 5.39111 0.0959469 5.97644 0.311889 6.52381C0.527832 7.07118 0.849607 7.56964 1.25843 7.99007C1.66725 8.41051 2.15493 8.7445 2.693 8.97255C3.23106 9.2006 3.80873 9.31813 4.39228 9.3183H9.5978C9.84618 9.31799 10.0921 9.36774 10.3212 9.46464C10.5503 9.56154 10.7579 9.70364 10.9319 9.8826C11.1059 10.0616 11.2428 10.2738 11.3345 10.5069C11.4262 10.7399 11.471 10.9891 11.4661 11.2399C11.4467 12.2594 10.5629 13.091 9.49509 13.091H1.16353V15.6544H9.49703C10.6546 15.6524 11.7678 15.2045 12.6095 14.4021C13.0349 14.0042 13.3764 13.5238 13.6135 12.9895C13.8506 12.4552 13.9784 11.8781 13.9894 11.2927C14.0002 10.7034 13.8946 10.1179 13.6788 9.5703C13.4629 9.0227 13.1412 8.52402 12.7324 8.10337C12.3235 7.68273 11.8357 7.34856 11.2975 7.12039C10.7593 6.89222 10.1815 6.77462 9.5978 6.77446Z" fill="#000000"/>
<path d="M67.0563 12.2555C66.8237 12.5908 66.5197 12.8694 66.1666 13.0705C65.8134 13.2717 65.4201 13.3903 65.0155 13.4178C64.9554 13.4178 64.8934 13.4178 64.8334 13.4178C63.3643 13.3904 62.1705 12.0989 62.1705 10.5393V2.71215C62.1694 2.29274 62.0335 1.88504 61.7832 1.5503C61.533 1.21555 61.1819 0.971856 60.7827 0.855821C60.3835 0.739786 59.9579 0.757682 59.5696 0.90682C59.1814 1.05596 58.8516 1.32828 58.6297 1.68287L51.7963 12.7916V0.628159H48.9106V13.2104C48.9109 13.6769 49.0241 14.1362 49.2402 14.5485C49.4564 14.9608 49.769 15.3136 50.1509 15.5761C50.5126 15.828 50.9298 15.9869 51.3661 16.0391C51.8025 16.0913 52.2448 16.0351 52.6548 15.8755C53.3149 15.6156 53.8529 15.1129 54.1607 14.4686L59.2925 6.1248V10.5413C59.2925 13.6722 61.7577 16.2767 64.7888 16.3334H64.8934C66.3606 16.3374 67.7698 15.7557 68.814 14.7151C69.8955 13.6428 70.0117 13.3063 71.5874 11.2614L72.2056 10.3397C72.5717 11.6398 73.254 12.8268 74.1904 13.7926C75.1269 14.7585 76.2876 15.4726 77.5671 15.8699C78.8466 16.2672 80.2042 16.3351 81.5163 16.0675C82.8285 15.7998 84.0535 15.2051 85.0799 14.3375V15.3981H87.9539V7.90745C87.9137 6.24051 87.3652 4.62669 86.3833 3.28601C85.4014 1.94533 84.0339 0.943043 82.4672 0.415821C80.9005 -0.111402 79.2109 -0.137905 77.6287 0.339924C76.0465 0.817753 74.6488 1.77666 73.6262 3.0859L67.0563 12.2555ZM79.9247 13.318C78.9056 13.3176 77.9095 13.0121 77.0623 12.4402C76.2151 11.8682 75.5549 11.0554 75.1652 10.1047C74.7754 9.15388 74.6737 8.10777 74.8727 7.09859C75.0718 6.08941 75.5627 5.16248 76.2835 4.43501C77.0042 3.70754 77.9225 3.21218 78.922 3.01158C79.9216 2.81097 80.9576 2.91412 81.8991 3.30799C82.8407 3.70186 83.6454 4.36876 84.2115 5.22437C84.7777 6.07998 85.0799 7.08587 85.0799 8.11487C85.0788 9.49349 84.5364 10.8154 83.5714 11.7908C82.6065 12.7662 81.2979 13.3154 79.9325 13.318H79.9247Z" fill="#000000"/>
<path d="M4.1946 20.1844C2.98333 20.1844 2.04339 20.8125 1.61315 21.9103C1.33361 22.6676 1.33361 23.5012 1.61315 24.2584C2.04339 25.3562 2.98333 25.9863 4.1946 25.9863C5.37679 25.9863 6.30316 25.3797 6.73534 24.3211L6.86325 24.006H6.17913L6.11905 24.1391C5.77021 24.9218 5.08609 25.3366 4.1946 25.3366C3.76976 25.3566 3.34957 25.2403 2.99415 25.0044C2.63874 24.7686 2.36632 24.4253 2.21588 24.0236C2.12739 23.7944 2.07381 23.5529 2.05696 23.3074H6.97759V23.0902C6.98981 22.7033 6.92549 22.3178 6.78839 21.9563C6.65129 21.5948 6.44416 21.2645 6.17913 20.9847C5.91784 20.7245 5.60768 20.5197 5.26688 20.3823C4.92608 20.2448 4.56151 20.1776 4.1946 20.1844ZM2.0744 22.6656C2.10159 22.4872 2.14906 22.3125 2.21588 22.1451C2.53953 21.3115 3.26047 20.834 4.1946 20.834C4.70983 20.8163 5.21284 20.9947 5.60381 21.334C5.99477 21.6733 6.2451 22.1486 6.3051 22.6656H2.0744Z" fill="#000000"/>
<path d="M18.6425 22.6578C17.6735 22.5423 17.032 22.423 17.032 21.8183C17.032 21.2137 17.5669 20.9769 17.8867 20.883C18.3365 20.7587 18.811 20.7587 19.2608 20.883C19.536 20.9632 20.1736 21.2176 20.1736 21.8281V22.0551H20.817V21.8379C20.817 21.108 20.3015 20.519 19.4313 20.2587C19.1498 20.1839 18.86 20.1458 18.5689 20.1453C18.2767 20.1407 17.9855 20.1796 17.7045 20.2607C16.8731 20.4975 16.3789 21.0806 16.3789 21.8261C16.3789 23.0354 17.5321 23.1822 18.5476 23.3094H18.5786C19.6426 23.4405 20.2899 23.5697 20.2899 24.2565C20.2899 24.9433 19.6581 25.1703 19.3829 25.2505C19.1508 25.3227 18.9085 25.3558 18.6658 25.3484C18.4159 25.3501 18.167 25.3145 17.9274 25.2427C17.629 25.1507 16.9351 24.8514 16.9351 24.1019V23.873H16.2917V24.0999C16.2917 24.9316 16.8363 25.591 17.7452 25.8611C18.0368 25.9536 18.3408 26.0004 18.6464 26H18.7433C19.0202 26 19.2956 25.9598 19.5612 25.8806C20.4333 25.6204 20.9333 25.0275 20.9333 24.2565C20.9313 22.9396 19.6678 22.783 18.6425 22.6578Z" fill="#000000"/>
<path d="M32.8211 25.3073C32.3037 25.364 31.9819 25.3073 31.8075 25.1605C31.6331 25.0138 31.542 24.642 31.542 23.9591V20.8732H32.9839V20.2333H31.542V19.1277H30.8986V20.2333H29.9121V20.8732H30.8986V23.9591C30.8986 24.5794 30.9548 25.2662 31.3753 25.6478C31.6715 25.8861 32.0462 26.0022 32.4238 25.9726C32.5799 25.9717 32.7359 25.9619 32.8909 25.9432L33.1138 25.9198L33.0459 25.2818L32.8211 25.3073Z" fill="#000000"/>
<path d="M46.8311 21.153C46.5715 20.8324 46.2417 20.5772 45.8677 20.4074C45.4937 20.2376 45.0857 20.1579 44.676 20.1746C43.4763 20.1746 42.5151 20.8204 42.1042 21.9005C41.8135 22.6557 41.8135 23.4935 42.1042 24.2487C42.517 25.3327 43.4783 25.9785 44.6779 25.9785C45.0888 25.9925 45.4972 25.9086 45.8699 25.7335C46.2426 25.5584 46.5693 25.2971 46.8233 24.9707V25.9491H47.4667V20.204H46.833L46.8311 21.153ZM44.676 25.3249C44.2517 25.3448 43.832 25.229 43.4767 24.9939C43.1214 24.7588 42.8486 24.4166 42.6973 24.0158C42.4763 23.4088 42.4763 22.7423 42.6973 22.1353C43.0209 21.3017 43.7419 20.8243 44.676 20.8243C45.1004 20.804 45.5202 20.92 45.8754 21.1555C46.2305 21.391 46.5026 21.734 46.6528 22.1353C46.8833 22.7392 46.8833 23.408 46.6528 24.0119C46.5027 24.4134 46.2306 24.7566 45.8755 24.9925C45.5204 25.2283 45.1006 25.3447 44.676 25.3249Z" fill="#000000"/>
<path d="M59.7518 25.3073C59.2344 25.364 58.9108 25.3073 58.7363 25.1605C58.5619 25.0138 58.4708 24.642 58.4708 23.9591V20.8732H59.9146V20.2333H58.4708V19.1277H57.8274V20.2333H56.841V20.8732H57.8274V23.9591C57.8274 24.5794 57.8836 25.2662 58.3042 25.6478C58.6003 25.8861 58.975 26.0022 59.3526 25.9726C59.5087 25.9718 59.6647 25.962 59.8197 25.9432L60.0426 25.9198L59.9767 25.2818L59.7518 25.3073Z" fill="#000000"/>
<path d="M71.7404 20.1844C70.5311 20.1844 69.5892 20.8125 69.159 21.9103C68.8795 22.6676 68.8795 23.5012 69.159 24.2584C69.5892 25.3562 70.5311 25.9863 71.7404 25.9863C72.9498 25.9863 73.849 25.3797 74.2812 24.3211L74.4091 24.006H73.725L73.6649 24.1391C73.3161 24.9218 72.6339 25.3366 71.7404 25.3366C71.3167 25.3544 70.8982 25.237 70.5444 25.0009C70.1906 24.7648 69.9194 24.4222 69.7695 24.0217C69.6819 23.7921 69.6284 23.5508 69.6106 23.3055H74.5273V23.0902C74.5387 22.7032 74.4739 22.3178 74.3365 21.9564C74.199 21.5949 73.9919 21.2646 73.7269 20.9847C73.4654 20.7243 73.1549 20.5193 72.8138 20.3819C72.4726 20.2444 72.1077 20.1773 71.7404 20.1844ZM69.6203 22.6656C69.6474 22.4872 69.6949 22.3125 69.7617 22.1451C69.9125 21.7438 70.185 21.4009 70.5404 21.1655C70.8958 20.93 71.3158 20.814 71.7404 20.834C72.2558 20.8158 72.759 20.9941 73.1501 21.3335C73.5412 21.6729 73.7914 22.1484 73.851 22.6656H69.6203Z" fill="#000000"/>
<path d="M86.1903 22.6578C85.2213 22.5423 84.5779 22.423 84.5779 21.8183C84.5779 21.2137 85.1128 20.9769 85.4326 20.883C85.8823 20.7587 86.3569 20.7587 86.8066 20.883C87.0818 20.9632 87.7194 21.2176 87.7194 21.8281V22.0551H88.3629V21.8379C88.3629 21.108 87.8473 20.519 86.9772 20.2587C86.6957 20.1839 86.4058 20.1458 86.1147 20.1453C85.8226 20.1407 85.5313 20.1796 85.2504 20.2607C84.4209 20.4975 83.9248 21.0806 83.9248 21.8261C83.9248 23.0354 85.0779 23.1822 86.0934 23.3094H86.1244C87.1884 23.4405 87.8357 23.5697 87.8357 24.2565C87.8357 24.9433 87.2039 25.1703 86.9287 25.2505C86.6967 25.3229 86.4544 25.3559 86.2116 25.3484C85.9598 25.3505 85.709 25.3149 85.4674 25.2427C85.169 25.1507 84.4752 24.8514 84.4752 24.1019V23.873H83.8317V24.0999C83.8317 24.9316 84.3763 25.591 85.2853 25.8611C85.5775 25.9536 85.8821 26.0004 86.1884 26H86.2833C86.5608 25.9999 86.8369 25.9597 87.1031 25.8806C87.9733 25.6204 88.4733 25.0275 88.4733 24.2565C88.4791 22.9396 87.2117 22.783 86.1903 22.6578Z" fill="#000000"/>
</svg>
